<svg version="1.1" xmlns="http://www.w3.org/2000/svg" xmlns:xlink="http://www.w3.org/1999/xlink" x="0px" y="0px"
     width="196.34px" height="183.12px" viewBox="0 0 196.34 183.12" style="enable-background:new 0 0 196.34 183.12;"
     xml:space="preserve">
<style type="text/css">
	.st0{fill:#FFFFFF;}
	.st1{fill:none;}
	.st2{fill:#01579B;}
</style>
    <defs>
</defs>
    <g>
	<path class="st0" d="M191.33,87.52c-0.96,0.8-2.09,1.41-3.22,1.73c0.04,0.76,0.04,1.53,0.04,2.29c0,20.01-6.55,38.5-17.64,53.45
		c2.09,3.74,1.29,8.56-2.13,11.45c-2.73,2.29-6.39,2.69-9.44,1.41c-16,14.71-37.34,23.67-60.77,23.67c-7.31,0-14.43-0.88-21.22-2.57
		c-0.12,0.16-0.24,0.28-0.4,0.4c-3.9,3.3-9.69,2.77-12.94-1.13c-1.13-1.33-1.81-2.89-2.05-4.5c-25.2-11.21-44.29-33.72-50.84-61.09
		c-2.53-0.04-5.06-1.17-6.87-3.3c-1.45-1.69-2.13-3.78-2.13-5.87c0-2.61,1.13-5.22,3.3-7.07C5.97,95.56,7.1,95,8.26,94.68
		c-0.08-1.05-0.08-2.09-0.08-3.13c0-21.7,7.72-41.64,20.54-57.15c-2.09-3.74-1.29-8.6,2.13-11.45c3.01-2.49,7.11-2.77,10.33-1
		C56.69,9.19,76.55,1.59,98.17,1.59c10.77,0,21.1,1.89,30.71,5.39c0.04-0.04,0.08-0.08,0.12-0.12c3.9-3.26,9.69-2.77,12.94,1.13
		c1.53,1.81,2.25,4.02,2.17,6.19c20.78,12.38,36.17,32.88,41.72,57.15c2.49,0.12,4.9,1.21,6.67,3.26c1.45,1.73,2.13,3.82,2.13,5.87
		C194.63,83.1,193.5,85.71,191.33,87.52z"/>
        <g>
		<path class="st1" d="M61.97,141.32"/>
	</g>
        <g>
		<path class="st1" d="M156.98,96.27"/>
	</g>
        <g>
		<path class="st1" d="M153.96,93.13"/>
	</g>
        <g>
		<path class="st1" d="M75.99,127.06"/>
	</g>
        <g>
		<path class="st2" d="M12.97,101.77c1.79,3.96,5.11,7.81,8.8,11.19c3.72,3.4,7.91,6.44,12.31,9.16c4.42,2.7,9.07,5.07,13.91,7.01
			c4.84,1.91,9.89,3.48,15.16,3.92c-5.29,0.25-10.62-0.67-15.8-1.98c-5.18-1.34-10.25-3.14-15.18-5.34
			c-4.91-2.22-9.7-4.82-14.23-7.98c-1.16-0.75-2.24-1.64-3.34-2.51c-1.12-0.83-2.15-1.83-3.2-2.8c-1.08-0.92-2.01-2.09-3-3.18
			c-0.51-0.52-0.93-1.17-1.37-1.8l-1.31-1.9L12.97,101.77z"/>
	</g>
        <g>
		<path class="st2" d="M68.87,169.74c4.43-0.66,9.02-2.32,13.45-4.38c4.44-2.07,8.76-4.57,12.96-7.29
			c8.4-5.45,16.32-11.8,23.75-18.67c7.43-6.87,14.38-14.32,20.48-22.43c3.03-4.06,5.85-8.31,8.16-12.82c1.19-2.24,2.13-4.6,2.97-7
			c0.72-2.43,1.26-4.93,1.25-7.5c0.18,2.56-0.19,5.13-0.76,7.64c-0.68,2.48-1.48,4.94-2.53,7.29c-2.04,4.74-4.61,9.23-7.41,13.56
			c-5.64,8.64-12.18,16.66-19.28,24.16c-7.1,7.51-14.75,14.53-23.12,20.79c-4.19,3.13-8.55,6.06-13.22,8.64
			c-4.68,2.55-9.65,4.81-15.28,6.05L68.87,169.74z"/>
	</g>
        <g>
		<path class="st2" d="M161.26,147.07c-0.34,0.22-0.66,0.54-0.88,0.89l-0.08,0.13l0,0l0,0l0,0l0.02,0c0.01-0.01,0.05-0.09,0.07-0.13
			l0.16-0.31l0.17-0.39c0.22-0.52,0.45-1.12,0.66-1.72c0.43-1.2,0.8-2.46,1.16-3.73c0.7-2.54,1.27-5.15,1.72-7.78
			c0.9-5.26,1.29-10.64,1.01-15.98c-0.13-2.68-0.48-5.33-1.04-7.95c-0.56-2.61-1.32-5.21-2.42-7.66c-1.09-2.46-2.43-4.82-4.09-6.99
			c-1.68-2.14-3.65-4.08-5.83-5.78c2.37,1.43,4.6,3.13,6.6,5.11c1.97,2.01,3.68,4.29,5.14,6.73c1.48,2.44,2.61,5.07,3.55,7.77
			c0.93,2.7,1.66,5.48,2.15,8.3c1.01,5.63,1.3,11.38,1.03,17.11c-0.13,2.86-0.39,5.73-0.81,8.6c-0.22,1.44-0.45,2.87-0.78,4.33
			c-0.15,0.73-0.33,1.46-0.55,2.24l-0.17,0.59l-0.23,0.65c-0.04,0.12-0.07,0.2-0.13,0.34l-0.21,0.46l-0.11,0.23l-0.06,0.11
			l-0.03,0.06l-0.12,0.18c-0.32,0.49-0.75,0.94-1.2,1.29L161.26,147.07z"/>
	</g>
        <g>
		<path class="st2" d="M39.7,29.58c-1.76,8.59-2.16,17.7-1.87,26.75c0.32,9.07,1.39,18.16,3.17,27.13
			c1.79,8.96,4.24,17.82,7.7,26.32c1.73,4.24,3.72,8.39,6.08,12.33c2.36,3.93,5.09,7.68,8.37,10.95c-3.51-3.02-6.54-6.59-9.23-10.39
			c-2.68-3.81-5.01-7.87-7.09-12.04c-4.14-8.37-7.31-17.2-9.81-26.22c-2.49-9.02-4.28-18.25-5.31-27.63
			c-0.99-9.37-1.31-18.89-0.08-28.56L39.7,29.58z"/>
	</g>
        <g>
		<path class="st2" d="M136.33,16.53c-6.77,0.92-13.41,1.92-20.02,3.27c-6.61,1.34-13.15,2.99-19.55,5.09
			c-6.4,2.1-12.65,4.69-18.48,8.07c-5.79,3.39-11.25,7.64-15.13,13.3c3.29-6.03,8.42-10.96,14.01-15.02
			c5.63-4.06,11.78-7.36,18.12-10.17c6.34-2.81,12.88-5.17,19.5-7.22c6.61-2.06,13.36-3.78,20.01-5.37L136.33,16.53z"/>
	</g>
        <g>
		<path class="st2" d="M182.78,86.62c-1.5-4.42-4.68-8.66-8.59-12.28c-3.93-3.63-8.49-6.77-13.27-9.58
			c-4.79-2.81-9.84-5.26-15.01-7.43c-5.18-2.18-10.48-4.1-15.87-5.8c-10.78-3.37-21.89-5.83-33.15-7.19
			c-5.63-0.66-11.31-1.02-16.98-0.86c-5.66,0.19-11.37,0.85-16.75,2.79c5.26-2.26,10.99-3.28,16.69-3.81
			c5.72-0.51,11.48-0.48,17.22-0.16c11.47,0.69,22.88,2.51,34.08,5.29c5.6,1.4,11.14,3.04,16.61,4.97
			c5.47,1.93,10.86,4.15,16.1,6.81c5.23,2.66,10.33,5.73,15.04,9.57c1.15,1.01,2.31,2,3.42,3.08l1.61,1.69l0.8,0.85l0.74,0.93
			l1.48,1.88c0.45,0.67,0.87,1.37,1.31,2.06l0.64,1.04c0.2,0.36,0.36,0.75,0.55,1.12l1.05,2.28L182.78,86.62z"/>
	</g>
        <g>
		<path class="st1" d="M39.78,21.98"/>
	</g>
        <g>
		<path class="st2" d="M98.17,6.14c10.03,0,19.84,1.72,29.17,5.12c4.96,1.79,9.83,4.09,14.45,6.82
			C161.8,30,176.24,49.78,181.4,72.33l0.01,0.03l0.01,0.03c1.28,5.4,2.01,11.12,2.17,16.98l0,0.08l0,0.08
			c0.03,0.62,0.03,1.29,0.03,2.01c0,18.43-5.79,35.98-16.77,50.77c-3.33,4.54-7,8.63-10.93,12.15l-0.03,0.03l-0.03,0.03
			c-15.76,14.49-36.25,22.47-57.69,22.47c-6.84,0-13.61-0.82-20.12-2.44l-0.04-0.01l-0.04-0.01c-4.93-1.15-9.82-2.81-14.56-4.95
			c-24.1-10.72-42.14-32.4-48.27-58l-0.01-0.03l-0.01-0.03c-1.34-5.38-2.12-11.1-2.32-16.99l0-0.14l-0.01-0.14
			c-0.06-0.83-0.06-1.75-0.06-2.72c0-19.78,6.92-39.04,19.5-54.27c3.55-4.31,7.53-8.29,11.84-11.84
			C59.22,12.99,78.43,6.14,98.17,6.14 M98.17,0c-22.01,0-42.21,7.73-58,20.7c-4.62,3.8-8.88,8.06-12.68,12.68
			C14.44,49.17,6.59,69.45,6.59,91.54c0,1.06,0,2.13,0.08,3.19c0.2,6.3,1.02,12.39,2.49,18.28c6.67,27.86,26.1,50.76,51.74,62.17
			c4.99,2.25,10.23,4.05,15.67,5.32c6.91,1.72,14.15,2.62,21.6,2.62c23.85,0,45.57-9.12,61.85-24.09c4.38-3.93,8.3-8.34,11.78-13.09
			c11.29-15.22,17.96-34.03,17.96-54.4c0-0.78,0-1.55-0.04-2.33c-0.16-6.26-0.94-12.39-2.33-18.24
			c-5.64-24.71-21.31-45.57-42.46-58.16c-4.91-2.9-10.06-5.36-15.5-7.32C119.64,1.92,109.13,0,98.17,0L98.17,0z"/>
	</g>
        <path class="st2" d="M41.68,36.04c-3.97,3.35-9.86,2.82-13.17-1.15c-0.41-0.49-0.74-0.98-1.02-1.51c-2.13-3.8-1.31-8.75,2.17-11.66
		c3.07-2.54,7.24-2.82,10.51-1.02c0.98,0.53,1.88,1.27,2.66,2.17C46.14,26.83,45.65,32.72,41.68,36.04z"/>
        <path class="st2" d="M144.92,12.8c-0.08,2.58-1.23,5.11-3.35,6.87c-3.93,3.31-9.86,2.82-13.17-1.15
		c-3.27-3.93-2.78-9.73,1.02-13.05c0.04-0.04,0.08-0.08,0.12-0.12c3.97-3.31,9.86-2.82,13.17,1.15
		C144.27,8.34,145,10.59,144.92,12.8z"/>
        <path class="st2" d="M196.34,80.25c0,2.7-1.15,5.36-3.35,7.2c-0.98,0.82-2.13,1.43-3.27,1.76c-3.48,1.1-7.4,0.08-9.9-2.9
		c-3.31-3.93-2.78-9.86,1.19-13.17c1.84-1.55,4.13-2.25,6.38-2.17c2.54,0.12,4.99,1.23,6.79,3.31
		C195.64,76.04,196.34,78.17,196.34,80.25z"/>
        <path class="st2" d="M169.63,157.6c-2.78,2.33-6.5,2.74-9.61,1.43c-1.35-0.53-2.58-1.43-3.56-2.62c-3.31-3.93-2.82-9.86,1.15-13.17
		c3.97-3.31,9.86-2.78,13.17,1.19c0.41,0.49,0.74,0.98,1.02,1.51C173.92,149.75,173.1,154.66,169.63,157.6z"/>
        <path class="st2" d="M76.57,180.51c-0.12,0.16-0.25,0.29-0.41,0.41c-3.97,3.35-9.86,2.82-13.17-1.15
		c-1.15-1.35-1.84-2.95-2.09-4.58c-0.49-3.11,0.61-6.42,3.23-8.59c3.97-3.31,9.86-2.78,13.17,1.15
		C80.5,171.55,80.17,177.19,76.57,180.51z"/>
        <path class="st2" d="M15.34,110.85c-1.8,1.51-3.97,2.21-6.18,2.17c-2.58-0.04-5.15-1.19-6.99-3.35C0.7,107.94,0,105.82,0,103.69
		c0-2.66,1.15-5.32,3.35-7.2c0.98-0.86,2.13-1.43,3.31-1.76c3.48-1.06,7.4,0,9.86,2.95C19.84,101.6,19.31,107.53,15.34,110.85z"/>
        <circle class="st2" cx="67.1" cy="176.91" r="4.52"/>
        <g>
		<polygon class="st2" points="65.2,49.55 147.23,89.66 65.2,129.77 		"/>
            <path class="st2" d="M67.24,52.82l38.48,18.81l36.85,18.02l-36.85,18.02l-38.48,18.81V89.66V52.82 M63.15,46.27v43.39v43.39
			l44.37-21.69l44.37-21.69l-44.37-21.69L63.15,46.27L63.15,46.27z"/>
	</g>
        <g>
		<path class="st0" d="M82.05,108.59c-1.08,0-2.26-0.74-2.26-1.93V72.66c0-1.19,1.17-1.93,2.26-1.93c0.36,0,0.71,0.08,1.05,0.23
			l37.6,16.99c1.09,0.49,1.21,1.36,1.21,1.71c0,0.35-0.12,1.21-1.21,1.71l-37.6,16.99C82.76,108.51,82.41,108.59,82.05,108.59z"/>
            <path class="st0" d="M82.05,72.78c0.07,0,0.13,0.02,0.2,0.05l19.66,8.88l17.6,7.95l-17.6,7.95l-19.66,8.88
			c-0.07,0.03-0.14,0.05-0.2,0.05c-0.09,0-0.16-0.02-0.21-0.05V89.66V72.82C81.89,72.8,81.96,72.78,82.05,72.78 M82.05,68.69
			c-2.26,0-4.3,1.68-4.3,3.98v16.99v16.99c0,2.3,2.04,3.98,4.3,3.98c0.63,0,1.27-0.13,1.89-0.41l19.66-8.88l17.95-8.11
			c3.22-1.45,3.22-5.69,0-7.14l-17.95-8.11l-19.66-8.88C83.32,68.81,82.67,68.69,82.05,68.69L82.05,68.69z"/>
	</g>
</g>
</svg>
